<mxfile host="app.diagrams.net" modified="2022-01-08T15:15:52.388Z" agent="5.0 (Windows NT 10.0; Win64; x64) AppleWebKit/537.36 (KHTML, like Gecko) Chrome/97.0.4692.71 Safari/537.36" etag="rJ0FmndKQFws_kE4DHM3" version="16.2.4" type="github">
  <diagram id="Vvutmy3dNaSM0Lm1iPfc" name="Page-1">
    <mxGraphModel dx="1578" dy="818" grid="1" gridSize="10" guides="1" tooltips="1" connect="1" arrows="1" fold="1" page="0" pageScale="1" pageWidth="827" pageHeight="1169" math="0" shadow="0">
      <root>
        <mxCell id="0" />
        <mxCell id="1" parent="0" />
        <mxCell id="QS_XNBw1Wf9equ_Zfux--17" value="Response" style="edgeStyle=orthogonalEdgeStyle;rounded=0;orthogonalLoop=1;jettySize=auto;html=1;labelBackgroundColor=#FFFFFF;" edge="1" parent="1" source="QS_XNBw1Wf9equ_Zfux--1" target="QS_XNBw1Wf9equ_Zfux--14">
          <mxGeometry relative="1" as="geometry">
            <Array as="points">
              <mxPoint x="280" y="230" />
              <mxPoint x="280" y="230" />
            </Array>
          </mxGeometry>
        </mxCell>
        <mxCell id="QS_XNBw1Wf9equ_Zfux--1" value="&lt;b&gt;Provider&lt;/b&gt;" style="rounded=1;whiteSpace=wrap;html=1;" vertex="1" parent="1">
          <mxGeometry x="330" y="165" width="110" height="90" as="geometry" />
        </mxCell>
        <mxCell id="QS_XNBw1Wf9equ_Zfux--2" value="&lt;b&gt;Provider Record&lt;br&gt;&lt;/b&gt;&lt;br&gt;ProviderStore.sol" style="rounded=1;whiteSpace=wrap;html=1;" vertex="1" parent="1">
          <mxGeometry x="600" y="160" width="120" height="100" as="geometry" />
        </mxCell>
        <mxCell id="QS_XNBw1Wf9equ_Zfux--6" value="&lt;span style=&quot;background-color: rgb(255 , 255 , 255)&quot;&gt;&lt;b&gt;Authorizer&lt;/b&gt;&lt;br&gt;EndpointStore.sol&lt;br&gt;&lt;/span&gt;" style="html=1;verticalAlign=bottom;labelBackgroundColor=none;endArrow=oval;endFill=0;endSize=8;rounded=0;entryX=0;entryY=0.5;entryDx=0;entryDy=0;startArrow=none;" edge="1" parent="1" source="QS_XNBw1Wf9equ_Zfux--8" target="QS_XNBw1Wf9equ_Zfux--2">
          <mxGeometry x="-1" y="-88" width="160" relative="1" as="geometry">
            <mxPoint x="520" y="340" as="sourcePoint" />
            <mxPoint x="580" y="209" as="targetPoint" />
            <mxPoint x="-88" y="-88" as="offset" />
          </mxGeometry>
        </mxCell>
        <mxCell id="QS_XNBw1Wf9equ_Zfux--19" value="Airnode Authentication" style="edgeStyle=orthogonalEdgeStyle;rounded=0;orthogonalLoop=1;jettySize=auto;html=1;labelBackgroundColor=#FFFFFF;" edge="1" parent="1" source="QS_XNBw1Wf9equ_Zfux--14" target="QS_XNBw1Wf9equ_Zfux--1">
          <mxGeometry relative="1" as="geometry" />
        </mxCell>
        <mxCell id="QS_XNBw1Wf9equ_Zfux--14" value="&lt;b&gt;Requester&lt;/b&gt;" style="rounded=1;whiteSpace=wrap;html=1;" vertex="1" parent="1">
          <mxGeometry x="50" y="165" width="110" height="90" as="geometry" />
        </mxCell>
        <mxCell id="QS_XNBw1Wf9equ_Zfux--8" value="" style="sketch=0;outlineConnect=0;fontColor=#232F3E;gradientColor=none;fillColor=#000000;strokeColor=none;dashed=0;verticalLabelPosition=bottom;verticalAlign=top;align=center;html=1;fontSize=12;fontStyle=0;aspect=fixed;pointerEvents=1;shape=mxgraph.aws4.endpoint;" vertex="1" parent="1">
          <mxGeometry x="570" y="196" width="28" height="28" as="geometry" />
        </mxCell>
        <mxCell id="QS_XNBw1Wf9equ_Zfux--16" value="" style="html=1;verticalAlign=bottom;labelBackgroundColor=none;endArrow=none;endFill=0;endSize=8;rounded=0;entryX=0;entryY=0.5;entryDx=0;entryDy=0;" edge="1" parent="1" source="QS_XNBw1Wf9equ_Zfux--1" target="QS_XNBw1Wf9equ_Zfux--8">
          <mxGeometry width="160" relative="1" as="geometry">
            <mxPoint x="440" y="210" as="sourcePoint" />
            <mxPoint x="610" y="210" as="targetPoint" />
          </mxGeometry>
        </mxCell>
      </root>
    </mxGraphModel>
  </diagram>
</mxfile>
